<?xml version="1.0" encoding="UTF-8"?>
<!-- Created with Inkscape by VulcanSphere (http://www.inkscape.org/ and http://vulcansphere.com) -->
<svg width="542.31" height="106.43" version="1.1" viewBox="0 0 542.31 106.43" xml:space="preserve" xmlns="http://www.w3.org/2000/svg"><title>Blue Lock (anime)</title><desc>Anime based on manga series written by Muneyuki Kaneshiro</desc><defs><clipPath id="clipPath17"><rect x="450.53" y="-1126.7" width="3.8774" height="13.7" ry=".90308" d="m 451.42834,-1126.6879 h 2.0713 c 0.5003,0 0.90307,0.4028 0.90307,0.9031 v 11.8941 c 0,0.5003 -0.40277,0.903 -0.90307,0.903 h -2.0713 c -0.5003,0 -0.90307,-0.4027 -0.90307,-0.903 v -11.8941 c 0,-0.5003 0.40277,-0.9031 0.90307,-0.9031 z" display="none" fill="#fff" fill-rule="evenodd"/><path class="powerclip" d="m442.83-1134h19.569v28.272h-19.569zm8.597 7.274c-0.5003 0-0.90307 0.4028-0.90307 0.9031v11.894c0 0.5003 0.40277 0.903 0.90307 0.903h2.0713c0.5003 0 0.90307-0.4027 0.90307-0.903v-11.894c0-0.5003-0.40277-0.9031-0.90307-0.9031z" fill="#fff" fill-rule="evenodd"/></clipPath><clipPath id="clipPath20"><g display="none"><path x="397.65738" y="-1147.3707" width="2.2980971" height="4.4194174" d="m397.66-1147.4h2.2981v4.4194h-2.2981z" fill="#fff" fill-rule="evenodd"/><rect x="397.7" y="-1141.4" width="2.2097" height="6.364" d="m 397.70157,-1141.4487 h 2.20971 v 6.3639 h -2.20971 z" display="block" fill="#fff" fill-rule="evenodd"/></g><path class="powerclip" d="m389.24-1154.7h19.719v27.625h-19.719zm8.4138 7.3199v4.4194h2.2981v-4.4194zm0.0442 5.922v6.3639h2.2097v-6.3639z"/></clipPath></defs><g transform="translate(4.2444 164.32)" fill="#02429b"><path d="m23.189-60.031c0.1003-0.26139 8.0357-14.01 17.634-30.553 9.5985-16.543 17.319-29.667 17.717-30.245 0.05204-0.0756-14.017-0.16693-30.825-0.16693h-30.56v-28.48h69.76v15.878l14.601-0.1404c10.705-0.10293 14.568-0.0446 14.48 0.2186-0.0663 0.19746-9.0485 16.918-19.961 37.157l-19.84 36.798-16.594 5e-3c-14.546 4e-3 -16.572-0.0541-16.412-0.47073zm66.293-0.15475c0.0937-0.484 3.5914-20.68 7.7726-44.88l6.3522-44 19.576-0.3334 13.826-0.0834-0.16863 0.72341c-0.0928 0.39787-3.4128 19.731-7.378 42.963s-7.3632 43.14-7.5512 44.24l-0.34181 2h-13.879l-18.379 0.25zm48.635-44.33v-44.96h32.479v62.4h22.4v27.52h-54.879zm131.28 0v-44.96h91.603v89.92h-91.603zm66.643 0v-19.36h-37.76v38.72h37.76zm50.856 44.72c0 0.13231 5.8944-11.688 13.078-25.68l13.062-25.44 11.562-0.084c6.3588-0.0462 11.562 0.0258 11.562 0.16 5.4e-4 0.1342-5.1321 11.728-11.406 25.764l-11.407 25.52h-13.234c-7.2787 0-13.218-0.37231-13.218-0.24zm83.273-0.15713c0-0.24023 6.2425-14.443 13.666-31.603 7.4234-17.16 13.571-31.382 13.662-31.604 0.13165-0.32194-2.1002-0.38707-10.969-0.32l-11.134 0.0842-12.872 26.56-15.266 0.0831c-8.6605 0.04714-15.266-0.03897-15.266-0.19902 0-0.15517 5.4563-12.001 12.125-26.323l12.125-26.041 41.955-0.0812c23.075-0.0446 41.294-0.0446 41.949 0 0.372-0.11165-8.2495 20.241-18.325 44.881l-18.319 44.8-16.75 0.0829c-13.365 0.06615-16.581 0.02811-16.581-0.32zm-276.53-46.643v-16.32h73.92v16.32l0.125 18.57h-73.92zm170.45-0.8v-16.16h18.24v32.32h-18.24zm21.138 0v-16.16h16.64v32.32h-16.64zm-315.73-41.92v-13.6h15.025v27.2h-15.025zm16.868 0v-13.6h14.08v27.2h-14.08z"/><g transform="matrix(.82196 0 0 .77906 72.626 -64.149)"><g transform="matrix(1.101 0 0 1 -38.756 -10.082)" fill="#02429b"><g transform="translate(-29.065 970)" fill="#02429b"><g transform="matrix(1 0 0 1.0802 -6.4929 87.909)"><g transform="translate(-3.693 57.041)" fill="#02429b"><path transform="translate(2.569 21.518)" d="m394.24-1149.7 0.0312 17.625h9.5625l0.125-10.688-0.9596-0.191-0.3529-0.1215v-1.25l0.75-0.9375-0.1875-4.4375z" clip-path="url(#clipPath20)" fill="#02429b" fill-rule="evenodd"/></g></g><g fill-rule="evenodd"><path d="m398.39-1069.3-0.0884 19.09 8.7681 0.034-0.0334-3.6328h-5.2621l-0.20194-15.49z"/><path d="m431.46-1069.2-0.083 18.531 8.5751-0.032-5e-3 -2.9512h-5.4179l-0.083-15.548z"/><path d="m408.87-1069.3h2.664l0.22467 15.926h3.7193l-0.098-15.965 3.0397 0.01-0.0679 18.951-9.4175-0.015z"/><path d="m420.66-1069.2-0.0625 18.656 8.136-0.01-0.0111-2.7635h-5.625l0.0937-6.0254 5.5625-0.032-0.0312-2.4166-5.5938 0.1289v-5.4133l5.5835 0.074v-2.1417z"/></g><g transform="matrix(.85762 0 0 1.0248 58.303 87.714)"><path d="m447.83-1129 7e-3 18.272 9.5491-0.044 0.0129-18.222z" clip-path="url(#clipPath17)" fill="#02429b" fill-rule="evenodd"/></g><path d="m453.62-1069.2v18.594l8.6156-0.01 0.0492-7.2829-2.3454-0.01s0.17512 2.0861-0.0442 2.9259c-0.12194 0.4669-0.52128 1.2929-0.97228 1.4407-0.67954 0.2228-0.94219 0.095-1.5026-0.093-0.39775-0.1331-0.72309-0.3545-0.97227-0.809-0.24918-0.4543-0.11453-10.796-0.0337-11.138 0.0808-0.3413 0.37153-0.714 0.75186-0.9066 0.4491-0.2275 0.66432-0.3348 1.149-0.2027 0.38189 0.1037 0.64906 0.2695 0.89494 0.5843 0.47119 0.6031 0.64081 2.7248 0.64081 2.7248l2.3972 0.014-0.0442-5.8489z" fill-rule="evenodd"/><path d="m464.89-1069.3 4e-3 18.785 3.1471 0.099-0.0145-7.3566 4.0915 7.2691 3.6774 0.049-5.8586-10.07c1.7932-2.9456 3.5379-5.8832 5.4227-8.7171h-3.8422c-1.375 2.1194-1.6937 2.6414-3.3475 5.1621l-0.26517-5.1943z" fill-rule="evenodd"/></g></g></g></g></svg>